# xmcd
#
# Track frame offsets:
#	150
#	17233
#	30448
#	51353
#	70186
#	86451
#	116824
#	124514
#	139592
#	154107
#	166910
#	200644
#	216464
#	233864
#	247905
#
# Disc length: 3539 seconds
#
# Revision: 0
# Processed by: cddbd v1.5.2PL0 Copyright (c) Steve Scherf et al.
# Submitted via: EasyCDDAExtractor 16.0.6.1
#
DISCID=cd0dd10f
DTITLE=Συλλογικός δίσκος - Λεβεντογέννα Κρήτη 3
DYEAR=2013
DGENRE=Κρητική
TTITLE0=Μαρκογιαννάκης Βαγγέλης - Μοίρα μου [μ. κ στ. Δημ. Σκουλάς]
TTITLE1=Γαργανουράκης Χαράλαμπος - Νά 'μουν πουλί της Γένοβας [παραδοσιακό]
TTITLE2=Μπικάκης Στέλιος - Νυχτέρια [μ. κ στ. ιδίου]
TTITLE3=Σκουλάς Βασίλης - Ζαριές [Βασ. Σκουλας-Γ. Καράτζης]
TTITLE4=Ψαραντώνης - Πέτρες πετώ του φεγγαριού [μ. κ στ. ιδίου]
TTITLE5=Μπικάκης Στέλιος - Απόψε κρύος έπιασε [παρ., ριζίτικο, διασκ. ιδίου]
TTITLE6=Μουντάκης Κώστας - Ευθύνη νά 'σαι Κρητικός [μ. κ στ. ιδίου]
TTITLE7=Ψαραντώνης - Μικιό κοπελιδάκι μου [μ. κ στ. ιδίου]
TTITLE8=Άνευ ερμηνευτού - Πεντοζάλης χανιώτικος [οργ., Κώστας Μουντάκης]
TTITLE9=Μανιάς Νίκος - Ρεθυμνιώτικο συρτό [μ. κ στ. ιδίου]
TTITLE10=Ψαραντώνης - Περδικάκι (κοντυλιές)[Ψαραντώνης-Δ. Σταυρακάκης]
TTITLE11=Σκουλάς Βασίλης - Δεν θέλω ανθρώπου το κακό [Β. Σκουλάς-Γ. Καράτζης]
TTITLE12=Πολυχρονάκης Αλέκος - Η μοίρα μού 'ταζε χάρες [μ. κ στ. ιδίου]
TTITLE13=Ξυλούρης Νίκος - Κρυφά του κόσμου σ' αγαπώ [μ. κ στ. ιδίου]
TTITLE14=Ξυλούρης Νίκος - Τζαναμπέτισσα [Ουρανία Μελαμπιανάκη]
EXTD=
EXTT0=
EXTT1=
EXTT2=
EXTT3=
EXTT4=
EXTT5=
EXTT6=
EXTT7=
EXTT8=
EXTT9=
EXTT10=
EXTT11=
EXTT12=
EXTT13=
EXTT14=
PLAYORDER=
